<svg viewBox="0 0 909 1286" version="1.1" xmlns="http://www.w3.org/2000/svg">
<defs>
<style>
.g0_1{fill:#000;}
</style>
</defs>
<path d="M45.8 165.2H863.6v6.1H45.8v-6.1Z" class="g0_1"/>
<path d="M45.8 201.9H298.7v33.6H45.8V201.9Z" class="g0_1"/>
<path d="M45.8 344.3H252.2v33.6H45.8V344.3Z" class="g0_1"/>
<path d="M45.8 465.8h86.4v33.6H45.8V465.8Z" class="g0_1"/>
<path d="M64.2 548.1c0-1.7-1.4-3.1-3.1-3.1c-1.7 0-3 1.4-3 3.1c0 1.7 1.3 3 3 3c1.7 0 3.1-1.3 3.1-3Z" class="g0_1"/>
<path d="M64.2 569.1c0-1.7-1.4-3.1-3.1-3.1c-1.7 0-3 1.4-3 3.1c0 1.7 1.3 3.1 3 3.1c1.7 0 3.1-1.4 3.1-3.1Z" class="g0_1"/>
<path d="M64.2 590.1c0-1.7-1.4-3.1-3.1-3.1c-1.7 0-3 1.4-3 3.1c0 1.7 1.3 3.1 3 3.1c1.7 0 3.1-1.4 3.1-3.1Z" class="g0_1"/>
<path d="M64.2 611.1c0-1.7-1.4-3-3.1-3c-1.7 0-3 1.3-3 3c0 1.7 1.3 3.1 3 3.1c1.7 0 3.1-1.4 3.1-3.1Z" class="g0_1"/>
<path d="M64.2 632.1c0-1.7-1.4-3-3.1-3c-1.7 0-3 1.3-3 3c0 1.7 1.3 3.1 3 3.1c1.7 0 3.1-1.4 3.1-3.1Z" class="g0_1"/>
<path d="M64.2 653.1c0-1.7-1.4-3-3.1-3c-1.7 0-3 1.3-3 3c0 1.7 1.3 3.1 3 3.1c1.7 0 3.1-1.4 3.1-3.1Z" class="g0_1"/>
<path d="M64.2 674.1c0-1.7-1.4-3-3.1-3c-1.7 0-3 1.3-3 3c0 1.7 1.3 3.1 3 3.1c1.7 0 3.1-1.4 3.1-3.1Z" class="g0_1"/>
<path d="M64.2 695.1c0-1.6-1.4-3-3.1-3c-1.7 0-3 1.4-3 3c0 1.7 1.3 3.1 3 3.1c1.7 0 3.1-1.4 3.1-3.1Z" class="g0_1"/>
<path d="M64.2 716.1c0-1.6-1.4-3-3.1-3c-1.7 0-3 1.4-3 3c0 1.7 1.3 3.1 3 3.1c1.7 0 3.1-1.4 3.1-3.1Z" class="g0_1"/>
<path d="M64.2 737.2c0-1.7-1.4-3.1-3.1-3.1c-1.7 0-3 1.4-3 3.1c0 1.6 1.3 3 3 3c1.7 0 3.1-1.4 3.1-3Z" class="g0_1"/>
<path d="M64.2 758.2c0-1.7-1.4-3.1-3.1-3.1c-1.7 0-3 1.4-3 3.1c0 1.6 1.3 3 3 3c1.7 0 3.1-1.4 3.1-3Z" class="g0_1"/>
<path d="M64.2 779.2c0-1.7-1.4-3.1-3.1-3.1c-1.7 0-3 1.4-3 3.1c0 1.7 1.3 3 3 3c1.7 0 3.1-1.3 3.1-3Z" class="g0_1"/>
<path d="M64.2 800.2c0-1.7-1.4-3.1-3.1-3.1c-1.7 0-3 1.4-3 3.1c0 1.7 1.3 3 3 3c1.7 0 3.1-1.3 3.1-3Z" class="g0_1"/>
<path d="M64.2 821.2c0-1.7-1.4-3.1-3.1-3.1c-1.7 0-3 1.4-3 3.1c0 1.7 1.3 3 3 3c1.7 0 3.1-1.3 3.1-3Z" class="g0_1"/>
<path d="M64.2 842.2c0-1.7-1.4-3.1-3.1-3.1c-1.7 0-3 1.4-3 3.1c0 1.7 1.3 3 3 3c1.7 0 3.1-1.3 3.1-3Z" class="g0_1"/>
<path d="M64.2 863.2c0-1.7-1.4-3.1-3.1-3.1c-1.7 0-3 1.4-3 3.1c0 1.7 1.3 3.1 3 3.1c1.7 0 3.1-1.4 3.1-3.1Z" class="g0_1"/>
<path d="M64.2 884.2c0-1.7-1.4-3.1-3.1-3.1c-1.7 0-3 1.4-3 3.1c0 1.7 1.3 3.1 3 3.1c1.7 0 3.1-1.4 3.1-3.1Z" class="g0_1"/>
<path d="M64.2 905.2c0-1.7-1.4-3-3.1-3c-1.7 0-3 1.3-3 3c0 1.7 1.3 3.1 3 3.1c1.7 0 3.1-1.4 3.1-3.1Z" class="g0_1"/>
<path d="M64.2 926.2c0-1.7-1.4-3-3.1-3c-1.7 0-3 1.3-3 3c0 1.7 1.3 3.1 3 3.1c1.7 0 3.1-1.4 3.1-3.1Z" class="g0_1"/>
<path d="M64.2 947.2c0-1.7-1.4-3-3.1-3c-1.7 0-3 1.3-3 3c0 1.7 1.3 3.1 3 3.1c1.7 0 3.1-1.4 3.1-3.1Z" class="g0_1"/>
<path d="M64.2 968.2c0-1.7-1.4-3-3.1-3c-1.7 0-3 1.3-3 3c0 1.7 1.3 3.1 3 3.1c1.7 0 3.1-1.4 3.1-3.1Z" class="g0_1"/>
<path d="M64.2 989.2c0-1.7-1.4-3-3.1-3c-1.7 0-3 1.3-3 3c0 1.7 1.3 3.1 3 3.1c1.7 0 3.1-1.4 3.1-3.1Z" class="g0_1"/>
<path d="M64.2 1010.2c0-1.6-1.4-3-3.1-3c-1.7 0-3 1.4-3 3c0 1.7 1.3 3.1 3 3.1c1.7 0 3.1-1.4 3.1-3.1Z" class="g0_1"/>
<path d="M64.2 1031.3c0-1.7-1.4-3.1-3.1-3.1c-1.7 0-3 1.4-3 3.1c0 1.6 1.3 3 3 3c1.7 0 3.1-1.4 3.1-3Z" class="g0_1"/>
<path d="M64.2 1052.3c0-1.7-1.4-3.1-3.1-3.1c-1.7 0-3 1.4-3 3.1c0 1.6 1.3 3 3 3c1.7 0 3.1-1.4 3.1-3Z" class="g0_1"/>
<path d="M64.2 1073.3c0-1.7-1.4-3.1-3.1-3.1c-1.7 0-3 1.4-3 3.1c0 1.7 1.3 3 3 3c1.7 0 3.1-1.3 3.1-3Z" class="g0_1"/>
<path d="M64.2 1094.3c0-1.7-1.4-3.1-3.1-3.1c-1.7 0-3 1.4-3 3.1c0 1.7 1.3 3 3 3c1.7 0 3.1-1.3 3.1-3Z" class="g0_1"/>
<path d="M64.2 1115.3c0-1.7-1.4-3.1-3.1-3.1c-1.7 0-3 1.4-3 3.1c0 1.7 1.3 3 3 3c1.7 0 3.1-1.3 3.1-3Z" class="g0_1"/>
<path d="M64.2 1136.3c0-1.7-1.4-3.1-3.1-3.1c-1.7 0-3 1.4-3 3.1c0 1.7 1.3 3 3 3c1.7 0 3.1-1.3 3.1-3Z" class="g0_1"/>
<path d="M64.2 1157.3c0-1.7-1.4-3.1-3.1-3.1c-1.7 0-3 1.4-3 3.1c0 1.7 1.3 3 3 3c1.7 0 3.1-1.3 3.1-3Z" class="g0_1"/>
<path d="M64.2 1178.3c0-1.7-1.4-3.1-3.1-3.1c-1.7 0-3 1.4-3 3.1c0 1.7 1.3 3.1 3 3.1c1.7 0 3.1-1.4 3.1-3.1Z" class="g0_1"/>
</svg>