<svg viewBox="0 0 909 1286" version="1.1" xmlns="http://www.w3.org/2000/svg">
<defs>
<style>
.g0_2{fill:#000;}
</style>
</defs>
<path d="M64.2 58.2c0-1.6-1.4-3-3.1-3c-1.7 0-3 1.4-3 3c0 1.7 1.3 3.1 3 3.1c1.7 0 3.1-1.4 3.1-3.1Z" class="g0_2"/>
<path d="M64.2 79.3c0-1.7-1.4-3.1-3.1-3.1c-1.7 0-3 1.4-3 3.1c0 1.6 1.3 3 3 3c1.7 0 3.1-1.4 3.1-3Z" class="g0_2"/>
<path d="M64.2 100.3c0-1.7-1.4-3.1-3.1-3.1c-1.7 0-3 1.4-3 3.1c0 1.6 1.3 3 3 3c1.7 0 3.1-1.4 3.1-3Z" class="g0_2"/>
<path d="M64.2 121.3c0-1.7-1.4-3.1-3.1-3.1c-1.7 0-3 1.4-3 3.1c0 1.7 1.3 3 3 3c1.7 0 3.1-1.3 3.1-3Z" class="g0_2"/>
<path d="M64.2 142.3c0-1.7-1.4-3.1-3.1-3.1c-1.7 0-3 1.4-3 3.1c0 1.7 1.3 3 3 3c1.7 0 3.1-1.3 3.1-3Z" class="g0_2"/>
<path d="M64.2 163.3c0-1.7-1.4-3.1-3.1-3.1c-1.7 0-3 1.4-3 3.1c0 1.7 1.3 3 3 3c1.7 0 3.1-1.3 3.1-3Z" class="g0_2"/>
<path d="M64.2 184.3c0-1.7-1.4-3.1-3.1-3.1c-1.7 0-3 1.4-3 3.1c0 1.7 1.3 3 3 3c1.7 0 3.1-1.3 3.1-3Z" class="g0_2"/>
<path d="M64.2 205.3c0-1.7-1.4-3.1-3.1-3.1c-1.7 0-3 1.4-3 3.1c0 1.7 1.3 3.1 3 3.1c1.7 0 3.1-1.4 3.1-3.1Z" class="g0_2"/>
<path d="M64.2 226.3c0-1.7-1.4-3.1-3.1-3.1c-1.7 0-3 1.4-3 3.1c0 1.7 1.3 3.1 3 3.1c1.7 0 3.1-1.4 3.1-3.1Z" class="g0_2"/>
<path d="M64.2 247.3c0-1.7-1.4-3-3.1-3c-1.7 0-3 1.3-3 3c0 1.7 1.3 3.1 3 3.1c1.7 0 3.1-1.4 3.1-3.1Z" class="g0_2"/>
<path d="M64.2 268.3c0-1.7-1.4-3-3.1-3c-1.7 0-3 1.3-3 3c0 1.7 1.3 3.1 3 3.1c1.7 0 3.1-1.4 3.1-3.1Z" class="g0_2"/>
<path d="M64.2 289.3c0-1.7-1.4-3-3.1-3c-1.7 0-3 1.3-3 3c0 1.7 1.3 3.1 3 3.1c1.7 0 3.1-1.4 3.1-3.1Z" class="g0_2"/>
<path d="M64.2 310.3c0-1.7-1.4-3-3.1-3c-1.7 0-3 1.3-3 3c0 1.7 1.3 3.1 3 3.1c1.7 0 3.1-1.4 3.1-3.1Z" class="g0_2"/>
<path d="M64.2 331.3c0-1.7-1.4-3-3.1-3c-1.7 0-3 1.3-3 3c0 1.7 1.3 3.1 3 3.1c1.7 0 3.1-1.4 3.1-3.1Z" class="g0_2"/>
<path d="M64.2 352.3c0-1.6-1.4-3-3.1-3c-1.7 0-3 1.4-3 3c0 1.7 1.3 3.1 3 3.1c1.7 0 3.1-1.4 3.1-3.1Z" class="g0_2"/>
<path d="M64.2 373.4c0-1.7-1.4-3.1-3.1-3.1c-1.7 0-3 1.4-3 3.1c0 1.6 1.3 3 3 3c1.7 0 3.1-1.4 3.1-3Z" class="g0_2"/>
<path d="M64.2 394.4c0-1.7-1.4-3.1-3.1-3.1c-1.7 0-3 1.4-3 3.1c0 1.6 1.3 3 3 3c1.7 0 3.1-1.4 3.1-3Z" class="g0_2"/>
<path d="M64.2 415.4c0-1.7-1.4-3.1-3.1-3.1c-1.7 0-3 1.4-3 3.1c0 1.7 1.3 3 3 3c1.7 0 3.1-1.3 3.1-3Z" class="g0_2"/>
<path d="M64.2 436.4c0-1.7-1.4-3.1-3.1-3.1c-1.7 0-3 1.4-3 3.1c0 1.7 1.3 3 3 3c1.7 0 3.1-1.3 3.1-3Z" class="g0_2"/>
<path d="M64.2 457.4c0-1.7-1.4-3.1-3.1-3.1c-1.7 0-3 1.4-3 3.1c0 1.7 1.3 3 3 3c1.7 0 3.1-1.3 3.1-3Z" class="g0_2"/>
<path d="M45.8 496.5H199v33.6H45.8V496.5Z" class="g0_2"/>
<path d="M45.8 780.3H238.2v33.6H45.8V780.3Z" class="g0_2"/>
</svg>